<?xml version="1.0" encoding="UTF-8" standalone="no"?><!DOCTYPE svg PUBLIC "-//W3C//DTD SVG 1.1//EN" "http://www.w3.org/Graphics/SVG/1.1/DTD/svg11.dtd"><svg width="100%" height="100%" viewBox="0 0 350 350" version="1.1" xmlns="http://www.w3.org/2000/svg" xmlns:xlink="http://www.w3.org/1999/xlink" xml:space="preserve" xmlns:serif="http://www.serif.com/" style="fill-rule:evenodd;clip-rule:evenodd;stroke-linecap:round;stroke-linejoin:round;stroke-miterlimit:1.5;"><path d="M305.378,137.506c0.118,2.273 0.178,4.561 0.178,6.863c-0,72.056 -58.5,130.556 -130.556,130.556c-72.056,0 -130.556,-58.5 -130.556,-130.556c0,-72.055 58.5,-130.555 130.556,-130.555c25.536,-0 49.369,7.347 69.5,20.041c2.266,43.658 26.02,81.67 60.878,103.651Z" style="fill:#bcbcbc;"/><path d="M300.639,121.014c-0.163,0.204 -0.351,0.375 -0.564,0.51c-4.418,2.8 -17.931,-10.583 -30.158,-29.869c-11.931,-18.819 -18.256,-36.349 -14.45,-39.788l-0.056,-0.088l35.106,-22.364l1.394,2.187c-0.12,0.051 -0.235,0.112 -0.345,0.181c-4.418,2.801 1.317,19.777 12.797,37.886c11.481,18.109 24.389,30.538 28.806,27.737c0.158,-0.1 0.303,-0.218 0.435,-0.353l1.343,2.107l-34.308,21.854Z" style="fill:#bcbcbc;"/><path d="M192.188,27.268c1.731,0.05 3.442,0.322 5.129,0.808c-1.698,-0.303 -3.408,-0.573 -5.129,-0.808Z" style="fill:#aeaeae;"/><rect x="65.339" y="214.81" width="219.322" height="39.801" style="fill:#808080;"/><path d="M291.853,31.629c4.417,-2.801 17.325,9.628 28.806,27.737c11.48,18.109 17.215,35.085 12.797,37.886c-4.418,2.801 -17.326,-9.628 -28.806,-27.737c-11.481,-18.109 -17.215,-35.085 -12.797,-37.886Z" style="fill:none;stroke:#bcbcbc;stroke-width:5px;"/><g><ellipse cx="175" cy="86.847" rx="58.533" ry="22.407" style="fill:#808080;stroke:#808080;stroke-width:5px;"/><path d="M233.533,146.742c-0,12.366 -26.228,22.406 -58.533,22.406c-32.305,0 -58.533,-10.04 -58.533,-22.406" style="fill:none;stroke:#808080;stroke-width:5px;"/><path d="M233.533,178.705c-0,12.367 -26.228,22.407 -58.533,22.407c-32.305,-0 -58.533,-10.04 -58.533,-22.407" style="fill:none;stroke:#808080;stroke-width:5px;"/><path d="M233.533,118.321c-0,12.367 -26.228,22.407 -58.533,22.407c-32.305,-0 -58.533,-10.04 -58.533,-22.407" style="fill:none;stroke:#808080;stroke-width:5px;"/><path d="M116.467,86.847l0,90.877" style="fill:none;stroke:#808080;stroke-width:5px;"/><path d="M233.533,86.847l-0,90.877" style="fill:none;stroke:#808080;stroke-width:5px;"/></g><g><path d="M312.611,258.365l0,72.761c0,5.019 -4.075,9.095 -9.095,9.095l-257.032,-0c-5.02,-0 -9.095,-4.076 -9.095,-9.095l-0,-72.761c-0,-5.02 4.075,-9.095 9.095,-9.095l257.032,-0c5.02,-0 9.095,4.075 9.095,9.095Z" style="fill:#bcbcbc;"/><rect x="37.389" y="283.891" width="275.223" height="56.329" style="fill:#bcbcbc;"/><rect x="148.645" y="268.032" width="52.711" height="72.189" style="fill:#808080;"/></g></svg>